<svg width="80" height="33" viewBox="0 0 80 33" fill="none" xmlns="http://www.w3.org/2000/svg">
<path d="M4.1243 10.5727H0V32.6672H5.30267L30.0485 0.851166H23.862L4.1243 26.1862V10.5727Z" fill="white"/>
<path d="M21.2107 22.6511H16.7918L21.2107 16.7592V22.6511Z" fill="white"/>
<path d="M21.2107 24.4186H16.7918V32.6672H21.2107V24.4186Z" fill="white"/>
<path d="M23.862 32.6672V13.2241L28.8701 7.03762V20.8835L37.1187 10.5727H43.3052L34.1728 21.7673L43.3052 32.6672H37.1187L31.2269 25.597L28.8701 28.2483V32.6672H23.862Z" fill="white"/>
<path fill-rule="evenodd" clip-rule="evenodd" d="M52.1429 32.6672C58.3255 32.6672 63.3374 27.6552 63.3374 21.4727C63.3374 15.2901 58.3255 10.2781 52.1429 10.2781C45.9603 10.2781 40.9484 15.2901 40.9484 21.4727C40.9484 27.6552 45.9603 32.6672 52.1429 32.6672ZM52.1429 27.9537C55.7223 27.9537 58.624 25.0521 58.624 21.4727C58.624 17.8933 55.7223 14.9916 52.1429 14.9916C48.5636 14.9916 45.6619 17.8933 45.6619 21.4727C45.6619 25.0521 48.5636 27.9537 52.1429 27.9537Z" fill="white"/>
<path d="M78.1704 14.6316C78.1704 13.1878 78.1704 11.7219 78.1704 10.2781C76.0163 10.2781 73.84 10.2781 71.6859 10.2781C71.0864 10.3003 69.0877 10.4558 67.4888 12.0106C65.8011 13.6543 65.0682 16.4751 66.0009 18.7629C66.867 20.8952 68.9101 21.8947 69.1099 21.9835C69.6873 22.2501 70.8865 22.7165 71.797 23.0275C72.9739 23.4495 73.3293 23.4939 73.729 23.8937C73.8178 23.9826 74.9504 25.1375 74.5284 26.5369C74.1953 27.6474 73.0184 28.4248 71.6637 28.3582C69.7317 28.3582 67.7997 28.3582 65.8677 28.3582C65.5124 29.0245 65.0016 29.8908 64.2466 30.757C63.5137 31.6011 62.7587 32.223 62.1591 32.6672C65.4236 32.6672 68.6658 32.6672 71.9302 32.6672C75.3501 32.1563 78.1038 30.224 78.9699 27.5364C79.4362 26.1149 79.1697 24.5823 79.1697 24.4934C79.0809 23.9826 78.7922 22.2501 77.3932 20.873C76.5937 20.0956 75.7942 19.7624 74.6839 19.3182C72.3522 18.3631 71.2862 18.6962 70.5756 17.6745C70.5312 17.6079 69.865 16.6084 70.3091 15.6533C70.62 15.0092 71.3306 14.5871 72.1745 14.5649C74.1731 14.5649 76.1718 14.6094 78.1704 14.6316Z" fill="white"/>
</svg>
